<svg aria-hidden="true" style="position: absolute; width: 0; height: 0; overflow: hidden;" version="1.1" xmlns="http://www.w3.org/2000/svg" xmlns:xlink="http://www.w3.org/1999/xlink">
<defs>
<symbol id="icon-plus" viewBox="0 0 32 32">
<path fill="#fff" style="fill: var(--color1, #fff)" d="M16 0c2.209 0 4 1.791 4 4v24c0 2.209-1.791 4-4 4s-4-1.791-4-4v-24c0-2.209 1.791-4 4-4z"></path>
<path fill="#fff" style="fill: var(--color1, #fff)" d="M32 16c0 2.209-1.791 4-4 4h-24c-2.209 0-4-1.791-4-4s1.791-4 4-4h24c2.209 0 4 1.791 4 4z"></path>
</symbol>
<symbol id="icon-hamburger-menu" viewBox="0 0 49 32">
<path fill="#34495e" style="fill: var(--color2, #34495e)" d="M1.455 0h46.545c0.803 0 1.455 0.651 1.455 1.455s-0.651 1.455-1.455 1.455h-46.545c-0.803 0-1.455-0.651-1.455-1.455s0.651-1.455 1.455-1.455z"></path>
<path fill="#34495e" style="fill: var(--color2, #34495e)" d="M1.455 14.545h46.545c0.803 0 1.455 0.651 1.455 1.455s-0.651 1.455-1.455 1.455h-46.545c-0.803 0-1.455-0.651-1.455-1.455s0.651-1.455 1.455-1.455z"></path>
<path fill="#34495e" style="fill: var(--color2, #34495e)" d="M1.455 29.091h46.545c0.803 0 1.455 0.651 1.455 1.455s-0.651 1.455-1.455 1.455h-46.545c-0.803 0-1.455-0.651-1.455-1.455s0.651-1.455 1.455-1.455z"></path>
</symbol>
<symbol id="icon-arrow" viewBox="0 0 38 32">
<path fill="#fff" style="fill: var(--color1, #fff)" d="M23.798 3.277l-3.258 3.344c-0.103 0.106-0.167 0.25-0.167 0.41s0.064 0.304 0.167 0.41l-0-0 5.52 5.632h-23.872c-0.001 0-0.002 0-0.003 0-0.323 0-0.586 0.262-0.586 0.586 0 0 0 0 0 0v0 4.694c0 0.323 0.262 0.586 0.586 0.586h23.875l-5.517 5.632c-0.103 0.105-0.167 0.25-0.167 0.41s0.064 0.304 0.167 0.41l-0-0 3.258 3.344c0.106 0.109 0.255 0.177 0.419 0.177s0.313-0.068 0.419-0.177l0-0 11.997-12.32c0.102-0.105 0.166-0.249 0.166-0.408s-0.063-0.303-0.166-0.408l0 0-11.997-12.32c-0.106-0.109-0.255-0.177-0.419-0.177s-0.313 0.068-0.419 0.177l-0 0z"></path>
</symbol>
<symbol id="icon-close" viewBox="0 0 32 32">
<path fill="#34495e" style="fill: var(--color2, #34495e)" d="M17.767 16l13.867-13.863c0.233-0.227 0.378-0.545 0.378-0.896 0-0.691-0.56-1.25-1.25-1.25-0.352 0-0.669 0.145-0.897 0.379l-13.865 13.863-13.867-13.865c-0.229-0.247-0.555-0.401-0.917-0.401-0.691 0-1.25 0.56-1.25 1.25 0 0.362 0.154 0.688 0.4 0.917l0.001 0.001 13.865 13.867-13.865 13.865c-0.219 0.225-0.355 0.533-0.355 0.872 0 0.691 0.56 1.25 1.25 1.25 0.339 0 0.646-0.135 0.871-0.354l13.867-13.867 13.865 13.867c0.226 0.227 0.539 0.368 0.885 0.368s0.659-0.141 0.885-0.368l0-0c0.227-0.226 0.367-0.539 0.367-0.885s-0.14-0.658-0.367-0.885v0l-13.867-13.865z"></path>
</symbol>
<symbol id="icon-deskclientbigline" viewBox="0 0 54 32">
<path fill="none" stroke="#f0f8f6" style="stroke: var(--color3, #f0f8f6)" stroke-linejoin="round" stroke-linecap="round" stroke-miterlimit="4" stroke-width="19.3741" d="M9.796 22.204l14.727-12.408 14.727 12.408 14.727-12.408 14.727 12.408 14.727-12.408 14.727 12.408 14.727-12.408 14.727 12.408 14.727-12.408 14.727 12.408 14.727-12.408 14.727 12.408 14.727-12.408 14.727 12.408 14.727-12.408 14.727 12.408 14.727-12.408 14.727 12.408 14.727-12.408 14.727 12.408"></path>
</symbol>
<symbol id="icon-deskquotes" viewBox="0 0 33 32">
<path fill="#f0f8f6" style="fill: var(--color3, #f0f8f6)" d="M3.631 15.534l4.497-15.534h-6.979l-7.444 17.243v14.757h16.439v-16.466h-6.514zM26.273 15.534l4.498-15.534h-6.979l-7.444 17.243v14.757h16.439v-16.466h-6.514z"></path>
</symbol>
<symbol id="icon-facebook" viewBox="0 0 32 32">
<path d="M13.931 24.25h3.218c0.276 0 0.5-0.224 0.5-0.499v-7.245h1.671c0.256 0 0.471-0.193 0.497-0.448l0.283-2.736c0.002-0.015 0.003-0.033 0.003-0.051 0-0.276-0.224-0.5-0.5-0.5-0 0-0 0-0.001 0h-1.953v-1.108c0-0.228 0.073-0.245 0.182-0.245h1.73c0.277 0 0.5-0.224 0.5-0.501v-2.656c-0.001-0.275-0.223-0.498-0.498-0.499h-0l-2.386-0.011c-1.671 0-2.564 0.736-3.019 1.354-0.634 0.862-0.729 1.871-0.729 2.396v1.271h-1.030c-0.276 0-0.5 0.224-0.5 0.5v0 2.735c0 0.277 0.224 0.501 0.5 0.501h1.030v7.243c0 0.277 0.224 0.501 0.5 0.501zM12.9 15.506v-1.737h1.030c0.276 0 0.5-0.224 0.5-0.499v-1.771c0-0.324 0.051-1.149 0.533-1.805 0.462-0.627 1.206-0.945 2.211-0.945l1.886 0.007v1.659h-1.23c-0.589 0-1.183 0.385-1.183 1.246v1.609c0 0.276 0.224 0.499 0.5 0.499h1.899l-0.178 1.737h-1.721c0 0 0 0 0 0-0.276 0-0.5 0.223-0.5 0.499v7.245h-2.219v-7.245c-0.001-0.275-0.224-0.499-0.499-0.499h-1.030z"></path>
<path d="M27.314 4.687c-2.88-2.895-6.866-4.687-11.271-4.687-0.015 0-0.030 0-0.045 0h0.002c-4.273 0-8.291 1.664-11.313 4.687-2.895 2.88-4.687 6.866-4.687 11.271 0 0.015 0 0.030 0 0.044v-0.002c0 4.274 1.664 8.292 4.687 11.314 2.88 2.895 6.866 4.686 11.27 4.686 0.015 0 0.030-0 0.045-0h-0.002c4.274 0 8.292-1.664 11.314-4.686 2.895-2.88 4.686-6.866 4.686-11.27 0-0.016-0-0.031-0-0.047v0.002c0-4.274-1.664-8.291-4.686-11.313zM26.607 26.607c-2.699 2.714-6.437 4.394-10.566 4.394-0.014 0-0.029-0-0.043-0h0.002c-0.012 0-0.026 0-0.041 0-4.13 0-7.867-1.68-10.566-4.393l-0.001-0.001c-2.714-2.699-4.394-6.437-4.394-10.566 0-0.014 0-0.029 0-0.043v0.002c-0-0.012-0-0.025-0-0.039 0-4.13 1.68-7.867 4.394-10.566l0.001-0.001c2.7-2.715 6.437-4.395 10.567-4.395 0.014 0 0.027 0 0.041 0h-0.002c0.012-0 0.026-0 0.040-0 4.13 0 7.867 1.68 10.566 4.394l0.001 0.001c2.714 2.699 4.394 6.437 4.394 10.566 0 0.014-0 0.028-0 0.042v-0.002c0 0.012 0 0.026 0 0.040 0 4.13-1.68 7.867-4.394 10.566l-0.001 0.001z"></path>
</symbol>
<symbol id="icon-instagram" viewBox="0 0 32 32">
<path d="M27.314 4.687c-2.88-2.895-6.866-4.687-11.271-4.687-0.015 0-0.030 0-0.045 0h0.002c-4.274 0-8.291 1.664-11.313 4.687-2.895 2.88-4.687 6.866-4.687 11.271 0 0.015 0 0.030 0 0.044v-0.002c0 4.274 1.664 8.292 4.687 11.314 2.88 2.895 6.866 4.686 11.27 4.686 0.015 0 0.030-0 0.045-0h-0.002c4.274 0 8.292-1.664 11.314-4.686 2.895-2.88 4.686-6.866 4.686-11.27 0-0.016-0-0.031-0-0.047v0.002c0-4.274-1.664-8.291-4.686-11.313zM26.607 26.607c-2.699 2.713-6.436 4.393-10.565 4.393-0.015 0-0.030-0-0.044-0h0.002c-0.012 0-0.027 0-0.041 0-4.129 0-7.865-1.679-10.564-4.392l-0.001-0.001c-2.715-2.7-4.395-6.437-4.395-10.567 0-0.014 0-0.028 0-0.042v0.002c-0-0.012-0-0.025-0-0.039 0-4.13 1.68-7.867 4.394-10.566l0.001-0.001c2.7-2.715 6.437-4.395 10.567-4.395 0.014 0 0.027 0 0.041 0h-0.002c0.012-0 0.026-0 0.040-0 4.13 0 7.867 1.68 10.566 4.394l0.001 0.001c2.713 2.699 4.393 6.436 4.393 10.565 0 0.014-0 0.029-0 0.043v-0.002c0 0.012 0 0.027 0 0.042 0 4.129-1.679 7.866-4.392 10.564l-0.001 0.001z"></path>
<path d="M20.203 7.979h-8.373c-2.124 0-3.851 1.728-3.851 3.851v8.373c0 2.123 1.727 3.851 3.851 3.851h8.373c2.123 0 3.851-1.728 3.851-3.851v-8.373c0-2.123-1.728-3.851-3.851-3.851zM23.039 20.203c-0.002 1.566-1.271 2.835-2.837 2.836h-8.373c-1.566-0.002-2.835-1.271-2.836-2.837v-8.373c0.002-1.566 1.271-2.835 2.837-2.836h8.373c1.566 0.002 2.835 1.271 2.836 2.837v8.373z"></path>
<path d="M20.508 10.916c-0.008-0-0.016-0.001-0.025-0.001-0.342 0-0.619 0.277-0.619 0.619s0.277 0.619 0.619 0.619c0.009 0 0.018-0 0.027-0.001l-0.001 0c0.341-0 0.618-0.277 0.618-0.619s-0.277-0.619-0.619-0.619c-0 0-0 0-0.001 0h0zM16.015 12.075c-2.175 0.003-3.937 1.765-3.939 3.94v0c0.002 2.175 1.764 3.937 3.939 3.94h0c2.175-0.002 3.938-1.765 3.94-3.94v-0c-0.003-2.175-1.765-3.937-3.94-3.939h-0zM16.015 18.942c-1.616-0.002-2.925-1.311-2.926-2.927v-0c0.002-1.615 1.311-2.923 2.926-2.925h0c1.615 0.002 2.923 1.31 2.926 2.925v0c-0.001 1.616-1.31 2.925-2.926 2.927h-0z"></path>
</symbol>
<symbol id="icon-quote" viewBox="0 0 39 32">
<path fill="#f0f8f6" style="fill: var(--color3, #f0f8f6)" d="M9.868 15.534l4.472-15.534h-6.94l-7.4 17.243v14.757h16.344v-16.466h-6.476zM32.381 15.534l4.472-15.534h-6.939l-7.401 17.243v14.757h16.344v-16.466h-6.476z"></path>
</symbol>
<symbol id="icon-sheepfish" viewBox="0 0 41 32">
<path d="M35.55 9.9c-0.856-2.031-2.043-3.763-3.511-5.211l-0.002-0.002c-1.489-1.479-3.267-2.669-5.242-3.478l-0.107-0.039c-1.79-0.74-3.87-1.17-6.049-1.17-0.013 0-0.026 0-0.038 0h-0.019c-2.093 0-4.139 0.386-6.069 1.157-1.267 0.507-2.556 1.163-3.646 1.963-0.081 0.051-0.162 0.151-0.162 0.151l0.057 0.418 1.497 0.004c2.339-1.567 5.216-2.5 8.312-2.5 0.006 0 0.012 0 0.018 0h-0.001c3.838 0 7.671 1.447 10.59 4.337 1.241 1.228 2.266 2.672 3.014 4.27l0.038 0.091 0.021 0.073 1.292-0.009 0.009-0.057zM28.233 28.713c-2.178 1.308-4.807 2.082-7.617 2.082-0.011 0-0.021 0-0.032-0h-0.019c-3.996-0.041-7.753-1.556-10.573-4.353-1.189-1.176-2.179-2.55-2.917-4.069l-0.039-0.088h-1.329c0.855 1.945 2.008 3.605 3.421 5.003l0.001 0.001c1.489 1.482 3.267 2.675 5.242 3.486l0.107 0.039c1.801 0.749 3.892 1.185 6.085 1.185h0.022c3.701-0.002 7.113-1.237 9.848-3.317l-0.040 0.029c-0.227-0.021-2.007-0.021-2.162 0zM18.155 10.174c0.11-0.029 0.215-0.045 0.317-0.053h-0.431c0.017 0.037 0.025 0.061 0.029 0.069 0.036-0.009 0.061-0.012 0.085-0.016zM30.4 20.773c0.138-0.169 0.145-0.286 0.032-0.475-0.314-0.526-0.623-1.053-0.935-1.579l-0.756-1.279c0.297-0.277 0.679-0.298 0.983-0.044 0.078 0.064 0.139 0.144 0.204 0.217 0.117 0.132 0.309 0.157 0.451 0.052 0.139-0.1 0.183-0.286 0.085-0.427-0.285-0.414-0.675-0.667-1.195-0.671-0.505-0.003-0.903 0.222-1.204 0.608-0.106 0.135-0.113 0.272-0.023 0.417 0.256 0.418 0.512 0.836 0.764 1.259l0.695 1.173c0.090 0.153 0.179 0.302 0.268 0.459-0.191 0.181-0.405 0.26-0.661 0.201-0.222-0.054-0.407-0.184-0.531-0.36l-0.002-0.003c-0.063-0.082-0.161-0.135-0.271-0.135-0.072 0-0.139 0.022-0.194 0.061l0.001-0.001c-0.142 0.1-0.187 0.301-0.085 0.442 0.305 0.43 0.72 0.672 1.261 0.659 0.467 0 0.829-0.221 1.114-0.576zM30.172 17.466c0.007 0.007 0.012 0.016 0.020 0.028 0.020-0.016 0.061-0.025 0.064-0.044 0.003-0.012 0.005-0.025 0.005-0.039 0-0.025-0.006-0.049-0.016-0.070l0 0.001c-0.029-0.048-0.111-0.089-0.033-0.141 0.069-0.048 0.113 0.025 0.149 0.073 0.085 0.112 0.058 0.256-0.064 0.321-0.037 0.020-0.098 0.016-0.143 0.009-0.023-0.004-0.048-0.053-0.044-0.081-0.009-0.019 0.032-0.039 0.061-0.055zM29.878 19.748c0.025-0.009 0.069 0.004 0.085 0.025 0.041 0.052 0.069 0.116 0.102 0.176l0.259 0.438c0.025 0.041 0.042 0.089 0.049 0.113 0 0.112-0.149 0.317-0.235 0.341-0.021 0.004-0.062-0.004-0.075-0.025-0.011-0.016-0.007-0.052 0-0.071 0.013-0.025 0.046-0.045 0.066-0.064 0.106-0.106 0.117-0.165 0.041-0.294-0.098-0.169-0.199-0.337-0.298-0.501-0.012-0.021-0.028-0.042-0.028-0.058 0.007-0.028 0.016-0.071 0.032-0.080zM29.753 19.644c-0.049-0.068-0.095-0.146-0.135-0.227l-0.004-0.009c-0.011-0.025 0.021-0.064 0.033-0.089 0.085 0.004 0.247 0.282 0.22 0.325-0.036 0.041-0.081 0.044-0.114 0zM25.579 17.088c-0.314-0.354-0.7-0.555-1.188-0.527-0.459 0.028-0.821 0.249-1.085 0.61-0.052 0.070-0.084 0.158-0.085 0.253v0c-0.013 0.346-0.013 0.687-0.004 1.033 0 0.085 0.036 0.177 0.081 0.245 0.074 0.109 0.171 0.202 0.256 0.302-0.085 0.096-0.178 0.189-0.256 0.289-0.045 0.055-0.076 0.123-0.085 0.199l-0 0.002c-0.009 0.491-0.012 0.986-0.004 1.476 0.004 0.221 0.224 0.362 0.435 0.297 0.143-0.044 0.227-0.164 0.227-0.337 0-0.41 0-0.82 0.004-1.227 0-0.048 0.029-0.108 0.061-0.144 0.137-0.144 0.331-0.234 0.545-0.234 0.012 0 0.023 0 0.035 0.001l-0.002-0c0.097 0.004 0.195 0.004 0.292 0 0.176-0.005 0.317-0.149 0.317-0.326 0-0.001 0-0.002-0-0.004v0c-0.005-0.178-0.151-0.321-0.331-0.321-0.001 0-0.002 0-0.002 0h0c-0.046-0.002-0.099-0.003-0.153-0.003s-0.107 0.001-0.16 0.003l0.008-0c-0.002 0-0.005 0-0.008 0-0.226 0-0.428-0.101-0.564-0.26l-0.001-0.001c-0.022-0.027-0.036-0.062-0.037-0.1v-0c-0.004-0.25 0-0.499 0-0.748 0-0.032 0.009-0.068 0.029-0.093 0.137-0.163 0.341-0.265 0.568-0.265 0.061 0 0.12 0.007 0.177 0.021l-0.005-0.001c0.207 0.053 0.357 0.181 0.475 0.346 0.085 0.117 0.204 0.165 0.347 0.141 0.224-0.036 0.353-0.273 0.243-0.462-0.025-0.057-0.081-0.109-0.13-0.165zM23.737 20.998c-0.021 0.056-0.055 0.104-0.098 0.14l-0 0c-0.025 0.020-0.081 0.004-0.122 0.007 0.012-0.036 0.025-0.068 0.041-0.105 0.021-0.048 0.049-0.096 0.061-0.149 0.013-0.051-0.004-0.112 0.004-0.164 0.004-0.028 0.036-0.052 0.057-0.080 0.025 0.025 0.058 0.048 0.069 0.077 0.013 0.028 0.004 0.064 0.004 0.1h0.009c-0.009 0.060-0.004 0.121-0.025 0.173zM23.687 20.569c-0.061 0.007-0.069-0.049-0.064-0.096 0-0.049 0-0.106 0.064-0.097 0.032 0.004 0.057 0.052 0.107 0.096-0.050 0.045-0.075 0.093-0.107 0.096zM24.769 19.114c0.036-0.004 0.069-0.025 0.106-0.032 0.028-0.004 0.061 0.003 0.093 0.003-0.003 0.032 0 0.081-0.019 0.096-0.049 0.032-0.11 0.053-0.179 0.081-0.037-0.028-0.090-0.052-0.094-0.080-0.016-0.064 0.041-0.064 0.094-0.068zM25.513 17.586c-0.026 0.014-0.058 0.022-0.091 0.022-0.012 0-0.024-0.001-0.036-0.003l0.001 0c-0.029-0.007-0.061-0.048-0.069-0.080-0.003-0.016 0.049-0.044 0.074-0.064 0.009 0.007 0.016 0.020 0.025 0.028 0.020-0.016 0.057-0.032 0.061-0.052 0.001-0.007 0.002-0.016 0.002-0.024 0-0.028-0.007-0.054-0.018-0.077l0 0.001c-0.032-0.044-0.11-0.089-0.032-0.141 0.068-0.048 0.113 0.028 0.149 0.073 0.085 0.109 0.057 0.249-0.064 0.318zM27.537 17.268c0.168-0.014 0.298-0.153 0.298-0.323 0-0.177-0.143-0.322-0.319-0.324h-0c-0.275-0.003-0.6-0.006-0.926-0.006-0.155 0-0.309 0-0.464 0.001l0.024-0c-0.179 0.001-0.324 0.147-0.324 0.326 0 0.024 0.003 0.048 0.008 0.070l-0-0.002c0.032 0.153 0.166 0.253 0.346 0.256 0.101 0.005 0.207 0 0.309 0-0.004 1.134-0.004 2.247-0.009 3.37h-0.301c-0.207 0-0.357 0.137-0.363 0.325-0.003 0.192 0.147 0.334 0.363 0.334 0.431 0 0.858 0.003 1.289 0.003 0.207 0 0.357-0.137 0.363-0.325 0.003-0.189-0.156-0.334-0.363-0.334h-0.305c0.004-1.125 0.004-2.239 0.009-3.372 0.13 0 0.247 0.007 0.366 0zM27.468 17.035c0.032 0 0.065-0.028 0.101-0.032 0.029-0.004 0.074-0.004 0.081 0.009 0.013 0.023 0.013 0.071-0.003 0.084-0.049 0.036-0.11 0.060-0.183 0.096-0.041-0.032-0.101-0.057-0.106-0.089-0.004-0.060 0.057-0.064 0.11-0.068zM27.492 21.074c0.036-0.003 0.073-0.028 0.114-0.036 0.028-0.003 0.077-0.003 0.081 0.009 0.012 0.025 0.012 0.077-0.004 0.089-0.053 0.036-0.117 0.060-0.192 0.093-0.039-0.032-0.089-0.053-0.093-0.081-0.012-0.064 0.045-0.064 0.094-0.073zM26.951 18.839c0-0.048 0-0.1 0.069-0.1 0.068 0 0.064 0.052 0.064 0.1v1.431c0 0.048 0.005 0.1-0.064 0.1s-0.065-0.053-0.065-0.1c-0.004-0.479-0.004-0.953-0.004-1.431zM27.008 20.649c-0.064 0.004-0.061-0.057-0.061-0.1 0-0.049 0.009-0.105 0.074-0.093 0.032 0.009 0.053 0.057 0.097 0.109-0.048 0.041-0.077 0.084-0.11 0.084z"></path>
<path d="M18.613 10.122c-0.040-0.003-0.087-0.005-0.134-0.005-0.158 0-0.31 0.021-0.455 0.060l0.012-0.003c-0.023 0.004-0.048 0.012-0.085 0.016-0.003-0.009-0.011-0.032-0.028-0.068-0.272-0.679-2.439-6.046-2.487-6.174l-4.639-0.025c0.029 0.218 0.061 0.39 0.094 0.579 0.028 0.169 0.045 0.237 0.090 0.41 0.023 0.085 0.048 0.113 0.142 0.113 0.629-0.004 1.114 0 1.74 0h0.122c-0.651 0.285-1.276 0.558-1.915 0.839-0.048-0.105-0.106-0.213-0.142-0.325-0.057-0.177-0.117-0.35-0.155-0.53-0.090-0.438-0.122-0.604-0.178-0.928-0.033-0.188-0.068-0.45-0.094-0.714l-0.004-0.051c-0.041-0.028-0.041-0.036-0.081-0.064-0.192 0.041-0.382 0.073-0.57 0.117-0.353 0.091-0.663 0.23-0.942 0.413l0.012-0.007c-0.202 0.12-0.358 0.3-0.445 0.516l-0.003 0.007c-0.089 0.199-0.177 0.445-0.249 0.697l-0.010 0.042c-0.053 0.205-0.062 0.427-0.069 0.64-0.029 0.67-0.041 1.346-0.069 2.016 0 0.042-0.032 0.094-0.069 0.122-0.451 0.389-0.875 0.812-1.268 1.254-0.793 0.887-1.472 1.856-2.074 2.878-0.894 1.511-1.511 3.123-1.922 4.815-0.114 0.47-0.183 0.953-0.273 1.427-0.016 0.085 0.017 0.117 0.11 0.113 0.269-0.013 0.537-0.029 0.805-0.045 0.505-0.028 1.008-0.052 1.525-0.060-0.029 0.013-0.054 0.026-0.077 0.041l0.003-0.002c-0.297 0.165-0.602 0.309-0.881 0.495-0.314 0.205-0.606 0.437-0.911 0.663-0.024 0.015-0.044 0.033-0.060 0.055l-0 0.001c-0.025 0.049-0.029 0.096 0.048 0.109 0.301 0.045 0.606 0.093 0.907 0.128 0.727 0.090 1.459 0.125 2.195 0.097 0.496-0.020 0.996-0.060 1.492-0.117 1.049-0.119 2.057-0.389 3.044-0.742 0.821-0.299 1.598-0.679 2.357-1.102 0.179-0.1 0.363-0.196 0.545-0.301 0.053-0.029 0.085-0.021 0.134 0.016 0.492 0.402 1.041 0.699 1.683 0.803 0.455 0.073 0.907 0.053 1.355-0.036 0.365-0.073 0.719-0.189 1.043-0.362 0.069-0.036 0.13-0.080 0.204-0.128-0.233-0.378-0.495-0.705-0.792-0.997l-0.001-0.001c-0.297-0.301-0.61-0.587-0.918-0.884 0.182-0.113 0.369-0.225 0.553-0.341 0.094-0.057 0.182-0.117 0.281-0.17 0.029-0.016 0.074-0.019 0.097-0.007 0.451 0.237 1.008-0.080 1.001-0.587 0-0.025 0.004-0.048 0.004-0.077 0.106 0.004 0.207 0.004 0.304 0.016 0.025 0.004 0.053 0.045 0.065 0.077 0.293 0.715 0.582 1.43 0.87 2.146l0.399 0.985 1.158 2.814c0.012 0.032 0.025 0.068 0.041 0.105-6.646-0.012-13.28-0.023-19.923-0.041v-0.105c0.007-4.835 0.020-9.67 0.032-14.507 0-0.048 0.021-0.112 0.058-0.144 0.373-0.358 0.752-0.711 1.131-1.061 0.035-0.025 0.080-0.041 0.128-0.041 0.002 0 0.004 0 0.006 0h-0c1.838 0 3.565 0.004 5.403 0.009 0.146 0 0.146 0 0.178-0.141 0.082-0.331 0.204-0.647 0.419-0.917 0.004-0.007 0.009-0.015 0.012-0.032h-0.106c-2.182-0.003-4.263-0.007-6.447-0.015-0.003-0-0.006-0-0.010-0-0.071 0-0.136 0.029-0.182 0.076l-0 0c-0.535 0.534-1.088 1.057-1.642 1.58-0.025 0.020-0.048 0.041-0.069 0.061-0.011 5.474-0.023 10.953-0.032 16.428 7.2 0.012 14.403 0.028 21.602 0.041 0.149 0.366 0.297 0.732 0.448 1.101 0.133 0.331 0.263 0.655 0.398 0.985l1.158 2.814 0.362 0.949c0.080 0.204 0.275 0.346 0.504 0.346 0 0 0.001 0 0.001 0h0.865c-0.162-0.411-0.325-0.825-0.491-1.234-0.773-1.922-1.547-3.847-2.322-5.769-0.146-0.366-0.246-0.594-0.349-0.82l0.053 0.128c-0.021-0.048-1.797-4.469-1.845-4.606-0.004-0.017 0.020-0.053 0.044-0.069 0.222-0.17 0.478-0.312 0.754-0.411l0.020-0.006c0.524-0.202 1.077-0.309 1.634-0.379 0.337-0.039 0.678-0.073 1.015-0.108 0.078-0.009 0.155-0.032 0.233-0.053-0.058 0.129-0.403 0.431-0.768 0.64-0.293 0.164-0.597 0.301-0.859 0.434 0.256-0.029 0.541-0.125 0.821-0.238 0.694-0.287 1.293-0.634 1.838-1.047l-0.020 0.015c0.301-0.225 0.634-0.402 0.959-0.587 0.781-0.443 1.581-0.853 2.443-1.118 0.431-0.132 0.875-0.233 1.313-0.35 0.029-0.007 0.053-0.007 0.098-0.012-0.021 0.025-0.032 0.041-0.045 0.052-0.914 0.775-1.053 2.078-0.451 3.107 0.292 0.501 0.704 0.889 1.227 1.157 0.066 0.032 0.091 0.068 0.091 0.141-0.004 1.269-0.009 2.541-0.009 3.81 0 0.186 0.094 0.322 0.252 0.358 0.224 0.052 0.419-0.1 0.419-0.338 0.004-0.353 0.004-0.707 0.004-1.061v-0.459c0.398 0 0.793 0 1.199 0.005v0.108c0 0.475-0.004 0.949-0.004 1.423 0 0.234 0.183 0.379 0.402 0.334 0.143-0.032 0.25-0.152 0.26-0.3l0-0.001c0.004-0.032 0-0.061 0-0.093 0.004-1.243 0.004-2.484 0.009-3.73v-0.141c0.085 0.057 0.159 0.096 0.22 0.149 0.158 0.14 0.24 0.329 0.297 0.526 0.090 0.298 0.175 0.595 0.265 0.893 0.073 0.237 0.207 0.434 0.411 0.582 0.101 0.073 0.198 0.149 0.297 0.229 0.087 0.071 0.142 0.178 0.142 0.298 0 0.001 0 0.002 0 0.003v-0c0.009 0.354 0.029 0.708 0.004 1.057-0.036 0.555-0.085 1.109-0.166 1.661-0.163 1.077-0.525 2.091-1.199 2.974-0.35 0.454-0.716 0.901-1.090 1.335-0.22 0.253-0.512 0.426-0.804 0.59-0.179 0.101-0.346 0.222-0.533 0.302-0.309 0.128-0.626 0.245-0.947 0.341-0.38 0.122-0.825 0.214-1.285 0.259l-0.027 0.002c-0.009 0-0.017 0.004-0.025 0.025h0.122c0.448 0 0.89 0.004 1.338 0.004 0.041 0 0.081 0.007 0.122 0.007 2.756 0.004 5.513 0.013 8.273 0.016 0.227-0.224 0.451-0.453 0.678-0.678 0.366-0.358 0.727-0.72 1.093-1.074 0.040-0.036 0.065-0.088 0.065-0.146 0-0.002-0-0.005-0-0.007v0c0.004-3.389 0.009-6.773 0.016-10.161 0.004-1.978 0.004-3.955 0.009-5.933v-0.141c-7.419-0.029-14.533-0.041-21.92-0.057zM3.099 17.325c-0.049 0.052-0.11 0.089-0.166 0.132-0.053 0.041-0.107 0.085-0.159 0.133-0.11-0.17 0.061-0.406 0.236-0.427 0.041-0.004 0.101 0.016 0.117 0.045 0.017 0.023 0 0.087-0.028 0.116zM15.563 7.433l0.064 0.16c-0.145 0.061-0.292 0.117-0.434 0.181-0.448 0.202-0.891 0.405-1.333 0.611-1.132 0.544-2.1 1.123-3.008 1.78l0.057-0.039c-0.032 0.023-0.077 0.032-0.117 0.039 0.565-0.643 3.837-2.512 4.772-2.733zM6.816 9.627c0.256-0.288 0.509-0.578 0.777-0.855 0.252-0.257 0.521-0.502 0.781-0.748 0.053-0.048 0.077-0.093 0.077-0.165 0-0.542-0.007-1.081 0.009-1.623 0.012-0.459 0.045-0.917 0.149-1.363 0.026-0.096 0.070-0.192 0.107-0.285 0.012-0.028 0.036-0.053 0.053-0.077 0.036 0.479 0.061 0.949 0.113 1.415 0.053 0.469 0.126 0.937 0.288 1.398 0.118-0.092 0.228-0.173 0.334-0.257 0.016-0.012 0.016-0.048 0.013-0.073-0.053-0.366-0.126-0.736-0.159-1.101-0.053-0.559-0.025-1.118 0.155-1.661 0.010-0.032 0.025-0.061 0.045-0.085l-0 0c-0.037 0.889 0.106 1.741 0.496 2.553 0.025-0.012 0.041-0.016 0.053-0.025 0.096-0.060 0.198-0.116 0.304-0.181-0.143-0.412-0.226-0.886-0.226-1.38 0-0.321 0.035-0.633 0.101-0.934l-0.005 0.029c0.005-0.031 0.019-0.057 0.040-0.077l0-0c0.045 0.366 0.078 0.736 0.143 1.098 0.064 0.366 0.191 0.715 0.411 1.033 0.032-0.016 0.064-0.028 0.093-0.039 0.891-0.39 1.781-0.784 2.679-1.163 0.139-0.055 0.309-0.032 0.467-0.048 0.004 0.013 0.004 0.025 0.009 0.036-0.11 0.037-0.19 0.067-0.268 0.099l0.028-0.010c-0.411 0.177-0.834 0.341-1.232 0.543-0.626 0.314-1.248 0.643-1.858 0.989-1.162 0.667-2.166 1.428-3.060 2.302l0.003-0.003c-0.366 0.354-0.703 0.729-1.053 1.093-0.064 0.069-0.149 0.105-0.309 0.113 0.147-0.189 0.289-0.373 0.444-0.547zM5.007 14.761c0.415 0 0.748 0.321 0.748 0.723-0.023 0.1-0.349 0.534-0.743 0.72-0.427 0-0.761-0.318-0.761-0.724-0.003-0.402 0.331-0.719 0.757-0.719zM5.783 18.225c-0.182 0.117-0.382 0.121-0.593 0.080 0.064-0.003 0.13-0.007 0.195-0.016l0.085-0.012c0.207-0.045 0.337-0.16 0.362-0.33 0.029-0.169-0.074-0.334-0.272-0.434-0.233-0.121-0.484-0.16-0.74-0.177-0.22-0.016-0.443-0.012-0.662-0.016-0.017 0-0.032-0.004-0.053-0.004 0.455-0.080 0.911-0.112 1.349 0.041 0.139 0.048 0.277 0.125 0.39 0.218 0.236 0.196 0.199 0.486-0.061 0.651zM6.686 15.154c-0.512-0.016-0.894-0.273-1.17-0.679-0.098-0.141-0.037-0.35 0.106-0.442 0.053-0.034 0.118-0.054 0.188-0.054 0.108 0 0.205 0.048 0.27 0.125l0 0.001c0.074 0.085 0.147 0.173 0.233 0.241 0.288 0.222 0.658 0.19 0.926-0.067-0.304-0.519-0.609-1.038-0.914-1.552l-0.789-1.334c-0.038-0.054-0.061-0.122-0.061-0.195 0-0.089 0.034-0.171 0.090-0.231l-0 0c0.334-0.418 0.761-0.655 1.333-0.598 0.438 0.056 0.812 0.29 1.053 0.627l0.003 0.005c0.115 0.164 0.091 0.353-0.064 0.466-0.059 0.042-0.133 0.067-0.212 0.067-0.109 0-0.208-0.048-0.275-0.123l-0-0c-0.069-0.077-0.139-0.165-0.22-0.229-0.119-0.1-0.273-0.16-0.441-0.16-0.197 0-0.376 0.083-0.501 0.216l-0 0 0.061 0.109c0.464 0.783 0.927 1.571 1.394 2.355 0.082 0.137 0.171 0.265 0.256 0.402 0.102 0.157 0.094 0.309-0.028 0.453-0.318 0.383-0.716 0.619-1.236 0.599zM8.836 17.429c-0.239 0.187-0.519 0.333-0.824 0.422l-0.018 0.004c-0.064 0.019-0.133 0.035-0.203 0.055-0.004-0.009-0.009-0.016-0.009-0.025l0.114-0.051c0.313-0.141 0.602-0.309 0.849-0.544 0.493-0.465 0.587-1.004 0.273-1.603l-0.11-0.196c0.007-0.009 0.007-0.009 0.012-0.009 0.203-0.036 0.208-0.041 0.288 0.145 0.286 0.61 0.228 1.323-0.373 1.801zM10.251 14.961c-0.038-0.067-0.061-0.147-0.061-0.233 0-0 0-0.001 0-0.001v0c-0.004-0.459 0-0.916 0-1.374v-0.121c-0.386 0-0.764 0-1.163-0.004v0.1c0 0.475 0 0.949-0.003 1.423 0 0.004 0 0.008 0 0.012 0 0.134-0.079 0.249-0.193 0.301l-0.002 0.001c-0.044 0.024-0.097 0.039-0.153 0.039-0.074 0-0.143-0.025-0.197-0.067l0.001 0.001c-0.101-0.073-0.143-0.173-0.143-0.299 0.004-0.992 0.004-1.984 0.009-2.977 0-0.334 0-0.672 0.004-1.006 0-0.201 0.142-0.341 0.337-0.341s0.346 0.145 0.346 0.341c0 0.559 0 1.122-0.004 1.681v0.116c0.395 0 0.772 0 1.163 0.004v-0.113c0-0.55 0-1.101 0.004-1.652 0-0.305 0.231-0.45 0.521-0.33 0.106 0.044 0.179 0.147 0.179 0.267 0 0.001 0 0.002-0 0.003v-0c0.003 0.076 0 0.153 0 0.229-0.004 1.266-0.004 2.535-0.009 3.802 0 0.165-0.085 0.274-0.252 0.326-0.146 0.044-0.309 0-0.383-0.128zM10.304 17.562c0.025-0.023 0.049-0.052 0.074-0.076 0.369-0.37 0.658-0.784 0.755-1.299 0.025-0.112 0.040-0.24 0.040-0.371 0-0.109-0.010-0.215-0.029-0.318l0.002 0.011c-0.016-0.101-0.012-0.177 0.081-0.238 0.016-0.012 0.025-0.036 0.041-0.060 0.338 0.715-0.195 2.021-0.963 2.351zM12.1 12.039c0.004 0.047 0.024 0.088 0.053 0.12l-0-0c0.155 0.158 0.346 0.245 0.573 0.242 0.094-0.004 0.192-0.004 0.285 0 0.195 0.007 0.337 0.153 0.334 0.341-0.004 0.178-0.15 0.321-0.328 0.321-0.005 0-0.009-0-0.014-0l0.001 0h-0.293c-0.229 0.002-0.434 0.101-0.576 0.258l-0.001 0.001c-0.020 0.024-0.032 0.054-0.032 0.087v0c-0.004 0.245-0.004 0.491 0 0.74 0 0.036 0.023 0.084 0.048 0.112 0.309 0.322 0.765 0.318 1.077-0.007 0.032-0.036 0.069-0.073 0.098-0.113 0.126-0.176 0.349-0.189 0.512-0.084 0.158 0.105 0.187 0.331 0.053 0.491-0.444 0.534-1.070 0.791-1.753 0.507-0.273-0.115-0.496-0.302-0.652-0.538l-0.003-0.005c-0.038-0.062-0.061-0.137-0.064-0.217l-0-0.001c-0.005-0.333 0-0.671-0.005-1.004 0-0.109 0.025-0.202 0.098-0.282 0.081-0.093 0.166-0.186 0.252-0.277-0.090-0.101-0.187-0.197-0.268-0.306-0.040-0.056-0.067-0.125-0.073-0.199l-0-0.002c-0.003-0.151-0.005-0.33-0.005-0.509s0.002-0.357 0.005-0.536l-0 0.027c0-0.064 0.029-0.141 0.065-0.196 0.533-0.78 1.565-0.868 2.236-0.197 0.057 0.057 0.117 0.113 0.166 0.173 0.126 0.16 0.107 0.373-0.045 0.486-0.060 0.042-0.135 0.068-0.215 0.068-0.12 0-0.227-0.056-0.296-0.144l-0.001-0.001c-0.134-0.173-0.292-0.305-0.516-0.353-0.231-0.048-0.557 0.068-0.694 0.253-0.014 0.022-0.021 0.049-0.021 0.078 0 0.003 0 0.005 0 0.008v-0c-0.003 0.224-0.003 0.442 0 0.658zM17.43 17.755c-0.895 0.515-2.285 0.486-3.403-0.459 0.069-0.039 0.134-0.080 0.203-0.112 0.017-0.009 0.053 0.009 0.069 0.025 0.403 0.394 0.891 0.627 1.456 0.704 0.324 0.043 0.651 0.035 0.971-0.021 0.236-0.036 0.473-0.089 0.704-0.137zM17.13 17.397c-0.57 0.314-1.553 0.305-2.406-0.482 0.093-0.106 0.106-0.106 0.211-0.017 0.496 0.434 1.089 0.591 1.739 0.551 0.147-0.004 0.289-0.032 0.457-0.053zM16.748 17.007c-0.273 0.157-1.131-0.16-1.391-0.507 0.041-0.032 0.081-0.060 0.13-0.1 0.341 0.354 0.74 0.591 1.26 0.608zM14.926 12.059c0 0.032 0.013 0.064 0.036 0.089 0.139 0.154 0.338 0.253 0.56 0.257h0.306c0.203 0.004 0.346 0.149 0.341 0.341-0.003 0.19-0.149 0.322-0.349 0.322h-0.256c-0.007-0-0.015-0-0.023-0-0.221 0-0.421 0.091-0.564 0.238l-0 0c-0.030 0.034-0.049 0.079-0.052 0.127l-0 0.001c-0.004 0.237-0.004 0.475 0 0.711 0.004 0.046 0.022 0.088 0.049 0.121l-0-0c0.309 0.325 0.772 0.318 1.082-0.012 0.036-0.041 0.068-0.085 0.106-0.128 0.065-0.080 0.164-0.131 0.274-0.131 0.072 0 0.139 0.022 0.194 0.058l-0.001-0.001c0.146 0.096 0.195 0.314 0.090 0.459-0.561 0.791-1.578 0.88-2.236 0.221-0.045-0.044-0.081-0.092-0.123-0.141-0.079-0.089-0.127-0.207-0.127-0.335 0-0.042 0.005-0.082 0.015-0.121l-0.001 0.003c0.022-0.113 0.035-0.243 0.035-0.376s-0.013-0.263-0.037-0.389l0.002 0.013c-0.029-0.165 0.003-0.286 0.101-0.395 0.077-0.087 0.159-0.172 0.24-0.26-0.090-0.096-0.187-0.193-0.269-0.302-0.043-0.058-0.070-0.13-0.077-0.208l-0-0.001c-0.009-0.334-0.004-0.672 0-1.005 0-0.068 0.029-0.149 0.069-0.205 0.597-0.861 1.796-0.857 2.398 0 0.041 0.055 0.065 0.124 0.065 0.199 0 0.111-0.054 0.209-0.137 0.27l-0.001 0.001c-0.056 0.040-0.126 0.065-0.202 0.065-0.113 0-0.214-0.054-0.278-0.138l-0.001-0.001c-0.134-0.178-0.292-0.319-0.521-0.358-0.281-0.053-0.505 0.060-0.695 0.253-0.016 0.016-0.020 0.053-0.023 0.077 0.007 0.233 0.003 0.459 0.007 0.683zM19.572 13.541c0 0.053-0.012 0.117-0.041 0.158-0.009 0.016-0.020 0.028-0.029 0.039-0.256 0.35-0.593 0.579-1.028 0.631l-0.149 0.012c-0.011 0-0.023 0.001-0.035 0.001-0.211 0-0.405-0.070-0.561-0.187l0.002 0.002v0.571c-0.004 0.241-0.203 0.395-0.431 0.338-0.144-0.036-0.249-0.164-0.249-0.316 0-0.002 0-0.004 0-0.006v0-0.711c0.004-1.069 0.004-2.139 0.004-3.207v-0.068c0-0.153 0.053-0.273 0.195-0.337 0.146-0.064 0.277-0.032 0.379 0.064 0.171-0.048 0.329-0.109 0.496-0.133 0.585-0.087 1.114 0.213 1.406 0.651 0.025 0.040 0.041 0.087 0.045 0.138l0 0.001c0 0.011 0.004 0.023 0.004 0.039 0 0.771-0.004 1.547-0.009 2.323zM31.271 21.055c-0.027 0.052-0.062 0.096-0.105 0.132l-0.001 0.001c-0.020 0.016-0.064 0.004-0.101 0.004 0.009-0.036 0.013-0.068 0.025-0.105 0.025-0.064 0.057-0.125 0.074-0.189 0.012-0.048-0.004-0.105 0.007-0.157 0.004-0.025 0.041-0.048 0.069-0.052 0.016-0.004 0.049 0.036 0.053 0.057 0.007 0.039 0.003 0.084 0.003 0.128h0.009c-0.013 0.064-0.013 0.129-0.032 0.181zM31.293 18.748c-0.004 0.028-0.042 0.048-0.062 0.077-0.020-0.025-0.061-0.049-0.061-0.077-0.004-0.049-0.006-0.107-0.006-0.165s0.002-0.116 0.007-0.173l-0 0.008c0-0.023 0.045-0.043 0.069-0.067 0.020 0.023 0.053 0.044 0.057 0.068 0.009 0.052 0.004 0.109 0.004 0.164-0.004 0.053 0.004 0.109-0.009 0.165zM31.166 19.607c0-0.028 0.037-0.076 0.061-0.080 0.058-0.009 0.065 0.041 0.065 0.089v0.892c0 0.049-0.007 0.096-0.064 0.085-0.025-0.004-0.062-0.053-0.062-0.085-0.002-0.134-0.003-0.292-0.003-0.45s0.001-0.316 0.003-0.474l-0 0.024zM31.235 18.261c-0.064 0.012-0.069-0.045-0.069-0.093 0-0.044-0.004-0.105 0.061-0.096 0.033 0.004 0.058 0.048 0.102 0.089-0.037 0.044-0.061 0.092-0.094 0.1zM32.601 18.78h-0.007v0.016c-0.402 0-0.793-0.004-1.187-0.004 0-0.501 0.004-1.005 0.004-1.515h0.009v-0.025c0.395 0.068 0.788 0.085 1.186 0.004 0 0.51-0.003 1.001-0.003 1.523zM33.146 21.055c-0.037 0.059-0.083 0.109-0.137 0.148l-0.001 0.001c-0.011 0.007-0.060-0.004-0.068-0.021-0.013-0.019-0.009-0.071 0.004-0.080 0.101-0.064 0.090-0.164 0.097-0.261 0.004-0.057-0.041-0.153 0.065-0.149 0.102 0 0.053 0.097 0.065 0.154v0.028h0.009c-0.013 0.064-0.004 0.129-0.032 0.181zM33.105 20.593c-0.106 0-0.064-0.089-0.064-0.145 0-0.053-0.037-0.141 0.064-0.141 0.098 0 0.049 0.093 0.090 0.157-0.032 0.044-0.061 0.128-0.090 0.128zM33.264 16.898c-0.016-0.032-0.025-0.052-0.037-0.071-0.059-0.104-0.168-0.172-0.293-0.172-0.024 0-0.048 0.003-0.070 0.007l0.002-0c-0.145 0.030-0.253 0.152-0.263 0.301l-0 0.001c-0.009 0.125-0.009 0.121-0.139 0.132-0.070 0.006-0.151 0.010-0.233 0.010-0.267 0-0.526-0.037-0.77-0.107l0.020 0.005c-0.053-0.011-0.078-0.036-0.090-0.087-0.053-0.229-0.288-0.326-0.505-0.218-0.032 0.016-0.090 0.016-0.113 0-0.72-0.446-1.207-1.057-1.362-1.885-0.094-0.507 0.016-0.993 0.231-1.455 0.382-0.832 1.041-1.307 1.968-1.431 0.281-0.036 0.565-0.057 0.837 0.016 0.317 0.085 0.557 0.261 0.634 0.591 0.107 0.454-0.191 0.884-0.658 0.964-0.094 0.016-0.182 0.041-0.256 0.057-0.029-0.036-0.092-0.121-0.154-0.206l-0.038-0.055c-0.011 0.009-0.019 0.012-0.032 0.021 0.021 0.096 0.021 0.201 0.13 0.269-0.020 0.012-0.069 0.035-0.119 0.059l-0.031 0.013c-0.071-0.125-0.179-0.223-0.309-0.279l-0.004-0.002c0.053 0.148 0.126 0.253 0.24 0.337l-0.082 0.093c-0.113-0.061-0.224-0.117-0.333-0.177 0.041 0.137 0.166 0.253 0.265 0.277-0.021 0.032-0.042 0.060-0.058 0.089-0.13-0.036-0.263-0.068-0.395-0.105-0.003 0.012-0.011 0.025-0.016 0.036 0.123 0.068 0.24 0.141 0.37 0.217-0.006 0.030-0.013 0.056-0.021 0.081l0.001-0.004-0.419-0.048c-0.003 0.012-0.003 0.023-0.007 0.036 0.117 0.080 0.24 0.144 0.398 0.153v0.109c-0.117 0.016-0.231 0.032-0.346 0.044 0 0.012 0 0.028-0.003 0.041l0.373 0.064c0.004 0.012 0.013 0.052 0.025 0.093l-0.35 0.137c0.004 0.012 0.004 0.023 0.009 0.039 0.126-0.011 0.252-0.019 0.395-0.032 0.020 0.029 0.053 0.068 0.081 0.109-0.117 0.053-0.224 0.1-0.334 0.145l0.013 0.044c0.13-0.020 0.26-0.036 0.386-0.057v-0.028c0.020 0.028 0.045 0.057 0.061 0.080-0.107 0.081-0.207 0.157-0.305 0.234 0.009 0.009 0.013 0.020 0.021 0.028 0.138-0.020 0.275-0.036 0.381-0.153 0.045 0.036 0.090 0.077 0.13 0.109-0.073 0.1-0.142 0.192-0.219 0.302 0.133 0.003 0.313-0.105 0.357-0.197 0.065 0.028 0.13 0.057 0.199 0.084-0.030 0.074-0.055 0.162-0.072 0.252l-0.001 0.009 0.029 0.016c0.064-0.077 0.13-0.153 0.203-0.237 0.062 0.012 0.139 0.023 0.233 0.039v0.254l0.036 0.012 0.134-0.269 0.198-0.032 0.094 0.185h0.032c0.009-0.045 0.021-0.089 0.021-0.132-0.004-0.069 0.020-0.109 0.093-0.125 0.041-0.009 0.081-0.032 0.139-0.061l0.097 0.141c0.009-0.004 0.017-0.012 0.025-0.016 0-0.016 0.009-0.036 0.004-0.052-0.074-0.141 0.029-0.192 0.122-0.253 0.032 0.019 0.069 0.036 0.114 0.060 0.004-0.028 0.016-0.048 0.009-0.060-0.049-0.085 0-0.138 0.048-0.202 0.167-0.201 0.24-0.427 0.123-0.675-0.047-0.113-0.157-0.192-0.285-0.192-0.088 0-0.167 0.037-0.223 0.096l-0 0c-0.073 0.071-0.090 0.157-0.057 0.256-0.175-0.043-0.272-0.305-0.183-0.465 0.139-0.238 0.48-0.334 0.74-0.206 0.399 0.197 0.606 0.527 0.619 0.949 0.016 0.852-0.383 1.483-1.139 1.901-0.101 0.049-0.207 0.096-0.313 0.153zM34.825 17.863c-0.203 0.325-0.207 0.672-0.142 1.029 0.012 0.076 0.041 0.153 0.064 0.228l-0.019 0.021c-0.061-0.042-0.126-0.077-0.179-0.126-0.182-0.169-0.265-0.389-0.337-0.619-0.061-0.201-0.114-0.402-0.183-0.598-0.11-0.326-0.26-0.619-0.597-0.804 0.402-0.221 0.781-0.459 1.045-0.82 0.256-0.357 0.438-0.751 0.447-1.214l0.646 0.185 0.016-0.016c-0.081-0.1-0.146-0.213-0.24-0.297-0.146-0.133-0.309-0.242-0.459-0.366-0.027-0.019-0.049-0.043-0.066-0.071l-0.001-0.001c-0.105-0.245-0.274-0.447-0.486-0.588l-0.005-0.003c-0.314-0.213-0.854-0.128-1.077 0.169-0.058 0.084-0.093 0.189-0.093 0.301 0 0.144 0.057 0.275 0.15 0.371l-0-0c0.139 0.128 0.301 0.119 0.471 0.080-0.016-0.049-0.037-0.089-0.041-0.133-0.009-0.071 0.020-0.141 0.097-0.16 0.081-0.021 0.107 0.052 0.122 0.112 0.009 0.031 0.014 0.066 0.014 0.103 0 0.087-0.029 0.168-0.079 0.232l0.001-0.001c-0.215 0.293-0.512 0.462-0.886 0.482-0.035 0.003-0.076 0.004-0.118 0.004-0.144 0-0.285-0.017-0.419-0.050l0.012 0.002c-0.406-0.117-0.573-0.431-0.651-0.809-0.009-0.042-0.015-0.090-0.015-0.139 0-0.106 0.025-0.206 0.070-0.295l-0.002 0.004c0.063-0.135 0.18-0.236 0.322-0.276l0.004-0.001c0.11-0.036 0.224-0.068 0.337-0.093 0.565-0.137 0.918-0.755 0.732-1.294-0.029-0.085-0.081-0.165-0.11-0.266 0.069 0.045 0.139 0.093 0.208 0.137 0.068 0.045 0.142 0.085 0.207 0.133 0.106 0.076 0.22 0.144 0.317 0.228 0.139 0.125 0.26 0.27 0.395 0.402 0.149 0.149 0.32 0.258 0.537 0.314 0.57 0.149 1.049 0.463 1.488 0.836 0.508 0.434 0.927 0.937 1.312 1.475 0.062 0.080 0.131 0.157 0.192 0.237 0.081 0.113 0.106 0.234 0.064 0.373-0.365 0.042-0.637-0.124-0.874-0.369-0.077 0.177 0.013 0.414 0.195 0.507 0.108 0.052 0.235 0.083 0.369 0.083 0.036 0 0.072-0.002 0.106-0.006l-0.004 0 0.094-0.013c0.15-0.016 0.175-0.004 0.195 0.145 0.032 0.229-0.004 0.43-0.215 0.587-0.179 0.133-0.334 0.298-0.503 0.443-0.035 0.027-0.076 0.047-0.12 0.059l-0.002 0.001c-0.26 0.064-0.521 0.045-0.781 0.009-0.329-0.045-0.658-0.093-0.992-0.064-0.060 0.007-0.141 0.014-0.222 0.019l-0.012 0.001c-0.147 0.004-0.228 0.077-0.298 0.181zM39.374 11.347l-0.013 6.914c-0.003 2.487-0.003 4.976-0.007 7.469-0.003 0.047-0.023 0.089-0.053 0.121l0-0c-0.431 0.41-0.866 0.816-1.301 1.221-0.033 0.029-0.077 0.047-0.125 0.048h-0c-1.797 0-3.595-0.003-5.387-0.007-0.025 0-0.049-0.004-0.085-0.009 0.025-0.023 0.036-0.044 0.053-0.060 0.998-0.943 1.765-2.121 2.214-3.445l0.018-0.060c0.195-0.595 0.288-1.198 0.325-1.813 0.020-0.321 0.073-0.643 0.101-0.964 0.036-0.479 0.061-0.96-0.049-1.435-0.036-0.17-0.11-0.331-0.134-0.495-0.012-0.070-0.019-0.152-0.019-0.234 0-0.175 0.031-0.343 0.087-0.499l-0.003 0.010c0.053-0.155 0.194-0.265 0.362-0.273l0.001-0c0.211-0.009 0.422-0.004 0.629 0.011 0.277 0.021 0.554 0.053 0.83 0.081 0.195 0.016 0.386-0.004 0.548-0.125 0.009-0.004 0.018-0.009 0.025-0.016l-0 0c0.117-0.169 0.301-0.261 0.463-0.385 0.305-0.235 0.39-0.544 0.289-0.909-0.016-0.054-0.026-0.117-0.026-0.182 0-0.013 0-0.025 0.001-0.038l-0 0.002c0.001-0.018 0.002-0.039 0.002-0.060 0-0.174-0.054-0.336-0.146-0.469l0.002 0.003c-0.642-0.853-1.362-1.632-2.261-2.236-0.203-0.143-0.443-0.246-0.703-0.295l-0.011-0.002c-0.23-0.044-0.43-0.153-0.586-0.306l0 0c-0.171-0.16-0.333-0.325-0.499-0.491-0.077-0.085-0.181-0.144-0.298-0.164l-0.003-0c-0.024-0.004-0.046-0.016-0.062-0.032v0c-0.279-0.306-0.645-0.459-1.053-0.507-0.634-0.080-1.251-0.004-1.817 0.305-0.207 0.117-0.395 0.274-0.586 0.422-0.059 0.053-0.134 0.089-0.218 0.1l-0.002 0c-0.402 0.041-0.793 0.149-1.174 0.274-1.057 0.333-2.048 0.811-3.012 1.342-0.505 0.277-0.988 0.583-1.443 0.928-0.009 0.004-0.016 0.009-0.029 0.013l0.134-0.314c-0.565 0.052-1.122 0.096-1.675 0.153-0.642 0.064-1.273 0.197-1.845 0.502-0.167 0.089-0.321 0.197-0.493 0.302-0.207-0.498-0.414-1.001-0.625-1.504 0.077-0.071 0.149-0.148 0.219-0.228 0.091-0.105 0.147-0.243 0.147-0.395v-0c0-0.775 0.003-1.551 0.003-2.331 0-0.036-0.003-0.073-0.007-0.109 0.48-0.009 0.96-0.012 1.439-0.012 2.171-0.004 4.346 0 6.516 0.007 2.048 0.009 4.098 0.021 6.146 0.032l5.207 0.036c-0.008 0.025-0.012 0.055-0.012 0.085 0 0.007 0 0.014 0.001 0.021l-0-0.001z"></path>
<path d="M18.919 13.361c-0.004-0.318 0-0.635 0-0.949v-0.967c-0.002-0.057-0.025-0.107-0.062-0.145l0 0c-0.039-0.039-0.081-0.074-0.126-0.107l-0.003-0.002c-0.293-0.192-0.663-0.153-0.924 0.121-0.026 0.030-0.044 0.069-0.048 0.112l-0 0.001c0 0.289-0.004 0.575-0.004 0.864v1.102c0.001 0.040 0.016 0.076 0.041 0.104l-0-0c0.135 0.151 0.33 0.247 0.548 0.25h0c0.199-0.008 0.377-0.091 0.509-0.221l-0 0c0.043-0.037 0.070-0.091 0.070-0.151 0-0.003-0-0.006-0-0.010l0 0zM17.578 11.858c-0.009 0-0.016-0.004-0.025 0-0.020 0-0.053 0.060-0.053 0.096-0.003 0.27-0.003 0.534 0 0.804 0 0.032 0.037 0.064 0.058 0.096 0.016-0.032 0.049-0.060 0.053-0.092 0.003-0.138 0.003-0.27 0.003-0.406v-0.414c-0.004-0.036 0-0.073-0.036-0.085zM19.399 13.329c0.012-0.012 0.023-0.029 0.036-0.041 0.012-0.012 0.020-0.025 0.020-0.036 0.009-0.1 0.004-0.201 0.004-0.301 0-0.096 0.004-0.197 0-0.293 0-0.029-0.032-0.057-0.053-0.085-0.020 0.025-0.057 0.053-0.057 0.077-0.004 0.141-0.004 0.277-0.004 0.418v0.189c0 0.025 0.036 0.048 0.053 0.073zM17.611 14.659c-0.013-0.052 0.028-0.141-0.058-0.141-0.097 0-0.053 0.089-0.057 0.145-0.009 0.089 0 0.177-0.074 0.245-0.021 0.020-0.025 0.057-0.032 0.084 0.032 0 0.081 0.016 0.097 0 0.045-0.042 0.081-0.093 0.106-0.15l0.001-0.003c0.019-0.045 0.011-0.1 0.019-0.153h-0.003v-0.029zM17.497 14.322c0 0.032 0.036 0.064 0.057 0.092 0.025-0.023 0.049-0.048 0.085-0.089-0.036-0.039-0.061-0.068-0.085-0.092-0.025 0.028-0.057 0.060-0.057 0.089zM17.643 11.665c-0.036-0.041-0.061-0.064-0.085-0.093-0.020 0.029-0.057 0.061-0.053 0.089 0 0.032 0.037 0.064 0.058 0.096 0.025-0.034 0.052-0.064 0.081-0.091l0-0zM19.346 13.522c-0.009 0.039-0.004 0.096 0.057 0.087 0.025-0.003 0.045-0.048 0.085-0.092-0.036-0.036-0.064-0.061-0.090-0.089-0.020 0.032-0.045 0.060-0.053 0.093zM10.74 14.398c0.081 0 0.069-0.055 0.069-0.105v-1.012c0-0.045 0.007-0.096-0.065-0.1-0.074 0-0.069 0.048-0.069 0.096 0 0.341-0.004 0.683 0 1.021 0.004 0.045-0.009 0.101 0.064 0.101zM8.882 13.273c-0.020 0.032-0.057 0.064-0.057 0.096-0.009 0.154-0.004 0.306-0.004 0.463s-0.004 0.309 0 0.462c0 0.032 0.036 0.064 0.057 0.101 0.021-0.032 0.058-0.064 0.058-0.096 0.004-0.309 0.004-0.615 0-0.925 0-0.036-0.032-0.069-0.053-0.101zM10.81 14.679c0-0.041 0.009-0.080-0.004-0.121-0.007-0.025-0.045-0.057-0.064-0.057-0.021 0-0.053 0.036-0.062 0.061-0.009 0.048 0.007 0.1-0.004 0.144-0.016 0.064-0.053 0.125-0.078 0.19-0.012 0.028-0.016 0.055-0.028 0.084 0.032 0 0.064 0.011 0.094 0.003 0.146-0.055 0.146-0.181 0.146-0.305zM8.931 14.555c-0.004-0.023-0.036-0.039-0.057-0.060-0.021 0.019-0.049 0.039-0.053 0.064-0.009 0.057 0.004 0.117-0.009 0.173-0.009 0.056-0.029 0.107-0.057 0.151l0.001-0.002c-0.025 0.032-0.081 0.060-0.032 0.1 0.019 0.016 0.089 0 0.117-0.025 0.098-0.073 0.090-0.181 0.090-0.286 0.004-0.036 0.013-0.080 0-0.116zM8.939 12.224c-0.003-0.025-0.035-0.045-0.057-0.068-0.020 0.020-0.053 0.039-0.053 0.064-0.002 0.049-0.003 0.107-0.003 0.165s0.001 0.116 0.003 0.174l-0-0.008c0 0.019 0.037 0.039 0.053 0.064 0.021-0.025 0.053-0.045 0.058-0.069 0.009-0.052 0.004-0.105 0.004-0.157-0.004-0.055 0.004-0.112-0.004-0.164zM8.829 11.966c-0.003 0.029 0.032 0.061 0.053 0.089l0.090-0.089c-0.036-0.044-0.061-0.068-0.081-0.096-0.021 0.032-0.058 0.064-0.062 0.096zM13.643 11.444c0.078-0.029 0.144-0.077 0.195-0.137l0.001-0.001c0.045-0.068 0.025-0.157-0.057-0.205-0.041-0.023-0.11-0.068-0.127-0.052-0.073 0.061 0.021 0.085 0.042 0.128 0.016 0.032 0.020 0.077 0.012 0.11-0.004 0.023-0.041 0.035-0.065 0.055-0.009-0.007-0.016-0.020-0.025-0.028-0.025 0.020-0.049 0.041-0.069 0.060 0.029 0.025 0.078 0.077 0.094 0.069zM13.703 14.347c0.005 0.016 0.008 0.035 0.008 0.054s-0.003 0.038-0.008 0.055l0-0.001c-0.007 0.025-0.045 0.036-0.053 0.061-0.004 0.011-0.006 0.023-0.006 0.036s0.002 0.025 0.006 0.037l-0-0.001c0.005 0.009 0.046 0.021 0.058 0.013 0.078-0.045 0.147-0.093 0.155-0.218 0-0.060-0.041-0.125-0.117-0.157-0.032-0.012-0.069-0.019-0.108-0.019-0.015 0-0.030 0.001-0.045 0.003l0.002-0c-0.016 0-0.032 0.045-0.049 0.068 0.025 0.013 0.049 0.029 0.075 0.041 0.028 0.012 0.077 0.012 0.085 0.028zM11.956 14.016c0.016-0.019 0.045-0.036 0.048-0.055 0.009-0.057 0.004-0.117 0.004-0.173 0-0.057 0.004-0.113-0.004-0.165-0.003-0.025-0.036-0.041-0.053-0.060-0.019 0.019-0.052 0.039-0.057 0.060-0.002 0.051-0.003 0.111-0.003 0.171s0.001 0.12 0.003 0.179l-0-0.009c0.004 0.017 0.042 0.032 0.062 0.053zM13.245 14.941c0.132-0.089 0.236-0.164 0.339-0.242l-0.018 0.013c0.009-0.007 0-0.048-0.012-0.064-0.013-0.012-0.049-0.016-0.065-0.009-0.098 0.057-0.192 0.117-0.286 0.181-0.016 0.012-0.028 0.044-0.025 0.060 0.009 0.021 0.037 0.032 0.066 0.061zM12.992 13.020c0.065-0.025 0.117-0.045 0.167-0.073 0.020-0.013 0.016-0.053 0.025-0.085-0.029 0-0.062-0.007-0.090-0.003-0.037 0.004-0.069 0.023-0.107 0.028-0.045 0.004-0.097 0.004-0.085 0.064 0.009 0.029 0.058 0.045 0.090 0.069zM11.899 14.173c-0.004 0.021 0.032 0.045 0.053 0.068l0.085-0.068c-0.026-0.026-0.053-0.051-0.080-0.074l-0.002-0.002c-0.020 0.023-0.053 0.048-0.057 0.076zM15.809 15.021c0.215-0.064 0.406-0.149 0.561-0.293 0.012-0.012 0.009-0.057-0.004-0.068-0.012-0.012-0.053-0.012-0.073-0.004-0.062 0.036-0.114 0.089-0.179 0.121-0.097 0.049-0.203 0.085-0.301 0.133-0.025 0.012-0.049 0.039-0.053 0.064 0.004 0.009 0.037 0.032 0.049 0.048zM16.432 11.447c0.007 0.001 0.016 0.002 0.024 0.002 0.033 0 0.064-0.009 0.089-0.026l-0.001 0c0.131-0.085 0.139-0.238 0.013-0.341-0.025-0.021-0.081-0.041-0.102-0.025-0.053 0.036-0.012 0.073 0.021 0.105 0.016 0.016 0.036 0.036 0.045 0.060 0.023 0.061-0.021 0.121-0.094 0.101-0.025 0.019-0.053 0.035-0.078 0.055 0.032 0.021 0.053 0.061 0.082 0.068zM16.512 14.342c0.007 0.017 0.011 0.038 0.011 0.059 0 0.015-0.002 0.029-0.006 0.043l0-0.001c-0.009 0.023-0.042 0.041-0.053 0.064-0.012 0.025-0.004 0.057-0.009 0.085 0.029 0 0.069 0.007 0.082-0.005 0.049-0.052 0.090-0.112 0.142-0.185-0.049-0.068-0.085-0.137-0.139-0.181-0.028-0.023-0.093-0.016-0.139-0.011-0.019 0.003-0.032 0.043-0.044 0.067 0.025 0.013 0.049 0.029 0.077 0.036 0.025 0.009 0.069 0.009 0.078 0.029zM14.765 14.005c0.016-0.021 0.049-0.037 0.049-0.058 0.007-0.057 0.004-0.108 0.004-0.164s0.003-0.117-0.004-0.173c-0.004-0.025-0.032-0.041-0.053-0.064-0.020 0.019-0.057 0.039-0.057 0.060-0.002 0.051-0.003 0.111-0.003 0.171s0.001 0.12 0.003 0.179l-0-0.009c0.003 0.021 0.041 0.036 0.061 0.057zM14.748 11.813c0.028-0.007 0.051-0.026 0.062-0.052l0-0.001c0.012-0.028 0.004-0.060 0.004-0.1 0 0 0.007-0.064 0-0.093-0.009-0.025-0.037-0.041-0.053-0.060-0.021 0.019-0.053 0.036-0.057 0.060-0.004 0.029-0.006 0.063-0.006 0.097s0.002 0.068 0.007 0.1l-0-0.004c0 0.020 0.032 0.057 0.044 0.052zM15.813 13.027c0.066-0.032 0.123-0.052 0.171-0.089 0.013-0.007 0.005-0.052 0.009-0.077-0.025 0-0.053-0.007-0.073-0.003-0.037 0.007-0.069 0.028-0.102 0.032-0.049 0.004-0.107 0-0.097 0.064-0.004 0.029 0.053 0.048 0.093 0.073zM14.704 14.154c0.004 0.028 0.036 0.052 0.057 0.076 0.021-0.020 0.045-0.039 0.082-0.073-0.037-0.032-0.062-0.052-0.082-0.071-0.020 0.023-0.057 0.048-0.057 0.068zM7.475 13.614c0-0.003-0.003-0.007-0.003-0.007l-0.078-0.029c-0.007 0.029-0.028 0.061-0.020 0.077 0.101 0.173 0.195 0.35 0.314 0.514 0.093 0.129 0.097 0.238-0.032 0.338-0.025 0.018-0.047 0.040-0.066 0.063l-0.001 0.001c-0.012 0.016-0.016 0.053-0.007 0.064 0.016 0.017 0.048 0.029 0.073 0.021 0.098-0.025 0.24-0.21 0.24-0.331-0.009-0.016-0.012-0.052-0.032-0.084-0.13-0.209-0.26-0.418-0.387-0.627zM7.407 14.716c-0.025 0.004-0.049 0.025-0.074 0.041-0.256 0.137-0.516 0.205-0.804 0.105-0.025-0.009-0.058 0.016-0.085 0.023 0.020 0.029 0.032 0.068 0.057 0.077 0.097 0.028 0.199 0.048 0.301 0.073 0.247-0.012 0.463-0.105 0.667-0.225 0.020-0.012 0.020-0.048 0.029-0.077-0.029-0.007-0.062-0.020-0.090-0.016zM7.647 11.415c0.057 0.004 0.122 0.016 0.166-0.009 0.139-0.076 0.143-0.241 0.017-0.346-0.025-0.020-0.069-0.016-0.102-0.023 0.009 0.032 0.013 0.068 0.021 0.1 0.011 0.044 0.041 0.092 0.036 0.137-0.004 0.025-0.065 0.041-0.098 0.057-0.009-0.009-0.012-0.021-0.020-0.029-0.021 0.016-0.053 0.029-0.053 0.049-0.003 0.019 0.021 0.060 0.032 0.064zM7.203 13.161c-0.004-0.009-0.045-0.004-0.061 0.003-0.012 0.009-0.025 0.041-0.016 0.053 0.049 0.084 0.097 0.169 0.155 0.253 0.007 0.012 0.041 0.016 0.061 0.007 0.016-0.003 0.029-0.028 0.045-0.048-0.065-0.089-0.122-0.181-0.183-0.269zM5.049 16.086c0.269-0.033 0.476-0.254 0.489-0.526l0-0.001c0.007-0.281-0.203-0.514-0.501-0.555-0.207-0.028-0.556 0.125-0.593 0.373 0.107-0.119 0.24-0.132 0.383-0.108 0.154 0.025 0.235 0.109 0.24 0.237 0 0.004 0 0.008 0 0.013 0 0.137-0.097 0.251-0.227 0.277l-0.002 0c-0.146 0.028-0.285 0.012-0.398-0.105 0.023 0.241 0.357 0.421 0.609 0.394z"></path>
</symbol>
<symbol id="icon-star" viewBox="0 0 32 32">
<path fill="#ffdc64" style="fill: var(--color6, #ffdc64)" d="M31.246 11.766l-10.366-0.96-4.118-9.564c-0.131-0.297-0.423-0.501-0.762-0.501s-0.631 0.204-0.76 0.496l-0.002 0.005-4.118 9.562-10.364 0.96c-0.426 0.039-0.756 0.394-0.756 0.827 0 0.249 0.11 0.472 0.283 0.624l0.001 0.001 7.82 6.872-2.288 10.154c-0.013 0.055-0.020 0.118-0.020 0.183 0 0.458 0.372 0.83 0.83 0.83 0.157 0 0.303-0.043 0.428-0.119l-0.004 0.002 8.95-5.314 8.95 5.314c0.121 0.073 0.268 0.117 0.424 0.117 0.458 0 0.83-0.372 0.83-0.83 0-0.065-0.007-0.128-0.021-0.188l0.001 0.006-2.288-10.156 7.82-6.87c0.173-0.153 0.282-0.375 0.282-0.623 0-0.432-0.33-0.786-0.751-0.826l-0.003-0z"></path>
<path fill="#ffc850" style="fill: var(--color7, #ffc850)" d="M16.762 1.244c-0.131-0.297-0.423-0.501-0.762-0.501s-0.631 0.204-0.76 0.496l-0.002 0.005-4.118 9.56-10.364 0.96c-0.426 0.039-0.756 0.394-0.756 0.827 0 0.249 0.11 0.472 0.283 0.624l0.001 0.001 7.82 6.872-2.288 10.154c-0.013 0.055-0.020 0.118-0.020 0.183 0 0.458 0.372 0.83 0.83 0.83 0.157 0 0.303-0.043 0.428-0.119l-0.004 0.002 1.998-1.186c0.276-11.38 5.564-19.396 9.75-23.98l-2.036-4.728z"></path>
</symbol>
<symbol id="icon-twitter" viewBox="0 0 32 32">
<path d="M27.314 4.687c-2.88-2.895-6.866-4.687-11.271-4.687-0.015 0-0.030 0-0.045 0h0.002c-4.273 0-8.291 1.664-11.313 4.687-2.895 2.88-4.687 6.866-4.687 11.271 0 0.015 0 0.030 0 0.044v-0.002c0 4.274 1.664 8.292 4.687 11.314 2.88 2.895 6.866 4.686 11.27 4.686 0.015 0 0.030-0 0.045-0h-0.002c4.274 0 8.292-1.664 11.314-4.686 2.895-2.88 4.686-6.866 4.686-11.27 0-0.016-0-0.031-0-0.047v0.002c0-4.274-1.664-8.291-4.686-11.313zM26.607 26.607c-2.699 2.714-6.437 4.394-10.566 4.394-0.014 0-0.029-0-0.043-0h0.002c-0.012 0-0.026 0-0.041 0-4.13 0-7.867-1.68-10.566-4.393l-0.001-0.001c-2.714-2.699-4.394-6.437-4.394-10.566 0-0.014 0-0.029 0-0.043v0.002c-0-0.012-0-0.026-0-0.040 0-4.13 1.68-7.867 4.394-10.566l0.001-0.001c2.699-2.714 6.437-4.394 10.566-4.394 0.014 0 0.028 0 0.042 0h-0.002c0.012-0 0.026-0 0.040-0 4.13 0 7.867 1.68 10.566 4.394l0.001 0.001c2.714 2.699 4.394 6.437 4.394 10.566 0 0.014-0 0.028-0 0.042v-0.002c0 0.012 0 0.026 0 0.040 0 4.13-1.68 7.867-4.394 10.566l-0.001 0.001z"></path>
<path d="M24.916 12.173c0.054-0.079 0.086-0.176 0.086-0.28 0-0.276-0.224-0.5-0.5-0.5-0.089 0-0.173 0.023-0.245 0.064l0.003-0.001c0.117-0.211 0.215-0.434 0.29-0.668 0.016-0.046 0.024-0.099 0.024-0.154 0-0.276-0.224-0.499-0.499-0.499-0.095 0-0.184 0.027-0.259 0.072l0.002-0.001c-0.505 0.3-1.044 0.519-1.607 0.656-0.651-0.593-1.521-0.956-2.475-0.956-2.034 0-3.683 1.649-3.683 3.683 0 0.059 0.001 0.117 0.004 0.176l-0-0.008c-2.266-0.286-4.224-1.421-5.577-3.071l-0.012-0.015c-0.092-0.113-0.232-0.184-0.387-0.184-0.183 0-0.344 0.099-0.43 0.246l-0.001 0.002c-0.314 0.531-0.499 1.17-0.499 1.852 0 0.641 0.164 1.243 0.451 1.768l-0.010-0.019c-0.261 0.017-0.466 0.232-0.466 0.496 0 0.001 0 0.001 0 0.002v-0 0.041c0 1.101 0.494 2.112 1.289 2.795-0.106 0.092-0.173 0.228-0.173 0.379 0 0.055 0.009 0.107 0.025 0.156l-0.001-0.004c0.341 1.067 1.14 1.895 2.141 2.294-0.764 0.391-1.668 0.621-2.625 0.621-0.007 0-0.015 0-0.022-0h0.001c-0.235 0-0.47-0.014-0.7-0.041-0.017-0.002-0.037-0.003-0.057-0.003-0.276 0-0.5 0.224-0.5 0.5 0 0.175 0.090 0.33 0.227 0.419l0.002 0.001c1.453 0.946 3.231 1.508 5.14 1.508 0.002 0 0.004 0 0.006 0h-0c3.59 0 5.839-1.696 7.092-3.117 1.561-1.771 2.455-4.114 2.455-6.432l-0.001-0.166c0.58-0.457 1.075-0.989 1.478-1.587l0.016-0.025zM22.621 13.136c-0.126 0.092-0.208 0.239-0.208 0.406 0 0.008 0 0.017 0.001 0.025l-0-0.001c0.006 0.123 0.009 0.25 0.009 0.386 0 2.077-0.803 4.179-2.205 5.77-1.118 1.267-3.125 2.779-6.342 2.779-0.001 0-0.003 0-0.005 0-1.027 0-2.012-0.182-2.924-0.515l0.059 0.019c1.155-0.213 2.172-0.69 3.024-1.366l-0.014 0.011c0.117-0.092 0.192-0.234 0.192-0.394 0-0.273-0.218-0.495-0.49-0.5h-0.001c-0.893-0.017-1.678-0.467-2.153-1.15l-0.006-0.009c0.252-0.015 0.501-0.057 0.745-0.122 0.214-0.060 0.368-0.253 0.368-0.483 0-0.241-0.17-0.442-0.397-0.49l-0.003-0.001c-0.986-0.208-1.762-0.933-2.039-1.872l-0.005-0.019c0.267 0.070 0.543 0.111 0.82 0.121 0.005 0 0.012 0 0.018 0 0.276 0 0.499-0.223 0.499-0.499 0-0.173-0.088-0.326-0.222-0.415l-0.002-0.001c-0.723-0.487-1.193-1.303-1.193-2.228 0-0.24 0.032-0.473 0.091-0.694l-0.004 0.019c1.628 1.68 3.863 2.762 6.351 2.893l0.024 0.001c0.008 0 0.017 0.001 0.026 0.001 0.276 0 0.499-0.223 0.499-0.499 0-0.040-0.005-0.080-0.014-0.117l0.001 0.003c-0.044-0.182-0.070-0.392-0.070-0.607 0-1.482 1.201-2.683 2.683-2.683 0.77 0 1.465 0.325 1.954 0.845l0.001 0.001c0.117 0.125 0.291 0.18 0.459 0.147 0.235-0.046 0.424-0.092 0.61-0.146l-0.048 0.012c-0.093 0.074-0.191 0.142-0.293 0.203-0.147 0.089-0.243 0.248-0.243 0.429 0 0.276 0.224 0.5 0.5 0.5 0.021 0 0.041-0.001 0.061-0.004l-0.002 0c0.081-0.010 0.162-0.021 0.243-0.033-0.115 0.096-0.234 0.189-0.355 0.277z"></path>
</symbol>
<symbol id="icon-youtube" viewBox="0 0 32 32">
<path d="M27.314 4.687c-2.88-2.895-6.866-4.687-11.271-4.687-0.015 0-0.030 0-0.045 0h0.002c-4.273 0-8.291 1.664-11.313 4.687-2.895 2.88-4.687 6.866-4.687 11.271 0 0.015 0 0.030 0 0.044v-0.002c0 4.274 1.664 8.292 4.687 11.314 2.88 2.895 6.866 4.686 11.27 4.686 0.015 0 0.030-0 0.045-0h-0.002c4.274 0 8.292-1.664 11.314-4.686 2.895-2.88 4.686-6.866 4.686-11.27 0-0.016-0-0.031-0-0.047v0.002c0-4.274-1.664-8.291-4.686-11.313zM26.607 26.607c-2.7 2.714-6.437 4.394-10.566 4.394-0.014 0-0.029-0-0.043-0h0.002c-0.012 0-0.026 0-0.041 0-4.13 0-7.867-1.68-10.566-4.393l-0.001-0.001c-2.714-2.699-4.394-6.437-4.394-10.566 0-0.014 0-0.029 0-0.043v0.002c-0-0.012-0-0.026-0-0.040 0-4.13 1.68-7.867 4.394-10.566l0.001-0.001c2.699-2.714 6.437-4.394 10.566-4.394 0.014 0 0.028 0 0.042 0h-0.002c0.012-0 0.026-0 0.040-0 4.13 0 7.867 1.68 10.566 4.394l0.001 0.001c2.714 2.699 4.394 6.437 4.394 10.566 0 0.014-0 0.028-0 0.042v-0.002c0 0.012 0 0.026 0 0.040 0 4.13-1.68 7.867-4.394 10.566l-0.001 0.001z"></path>
<path d="M24.613 12.45c-0.018-0.139-0.197-1.382-0.78-2.015-0.695-0.774-1.487-0.853-1.867-0.893l-0.092-0.010c-0.005-0.001-0.013-0.001-0.021-0.002l-0.002-0c-2.298-0.178-5.765-0.18-5.799-0.18h-0.009c-0.034 0-3.502 0.002-5.798 0.18-0.019 0.003-0.058 0.007-0.097 0.011l-0.016 0.001c-0.381 0.038-1.172 0.118-1.868 0.893-0.582 0.633-0.762 1.875-0.781 2.016v0.007c-0.1 0.862-0.161 1.869-0.168 2.889l-0 0.011v1.332c0 1.435 0.161 2.841 0.167 2.9l0.001 0.007c0.019 0.141 0.198 1.382 0.781 2.015 0.644 0.715 1.459 0.82 1.899 0.877 0.077 0.010 0.143 0.018 0.189 0.027 0.015 0.003 0.031 0.006 0.047 0.007 1.325 0.135 5.469 0.177 5.65 0.179 0.035 0 3.505-0.009 5.803-0.183 0.010-0.001 0.019-0.002 0.027-0.004l-0.002 0 0.094-0.011c0.38-0.039 1.169-0.122 1.862-0.893 0.581-0.631 0.761-1.874 0.779-2.014l0.002-0.009c0.006-0.059 0.167-1.466 0.167-2.9v-1.331c0-1.434-0.16-2.841-0.167-2.9l-0.001-0.009zM23.781 16.691c-0.008 0.99-0.066 1.956-0.171 2.908l0.011-0.126c-0.037 0.277-0.212 1.126-0.525 1.465l-0.005 0.005c-0.436 0.487-0.91 0.537-1.223 0.57l-0.105 0.011c-2.259 0.173-5.68 0.181-5.709 0.181-0.043 0-4.227-0.043-5.532-0.172-0.073-0.014-0.149-0.023-0.231-0.034-0.374-0.048-0.887-0.114-1.284-0.556-0.001-0.002-0.003-0.004-0.005-0.006l-0-0.001c-0.277-0.3-0.469-1.056-0.525-1.465-0.011-0.087-0.16-1.444-0.16-2.781v-1.333c0-1.337 0.15-2.695 0.16-2.78 0.037-0.277 0.212-1.129 0.525-1.467l0.005-0.005c0.437-0.489 0.912-0.537 1.227-0.569 0.063-0.006 0.097-0.010 0.132-0.014l-0.031 0.003c2.258-0.174 5.677-0.176 5.711-0.176h0.009c0.034 0 3.453 0.002 5.711 0.176l0.101 0.011c0.314 0.032 0.788 0.080 1.226 0.569l0.005 0.005c0.277 0.301 0.469 1.056 0.525 1.467 0.011 0.087 0.16 1.444 0.16 2.781v1.333z"></path>
<path d="M19.397 15.599l-5.148-3.089c-0.073-0.044-0.162-0.070-0.256-0.070-0.276 0-0.5 0.223-0.501 0.499v6.177c0 0.276 0.224 0.5 0.5 0.5 0.095 0 0.184-0.026 0.259-0.072l-0.002 0.001 5.148-3.088c0.146-0.089 0.243-0.248 0.243-0.429s-0.096-0.34-0.24-0.428l-0.002-0.001zM14.493 18.234v-4.412l3.675 2.206-3.675 2.205z"></path>
</symbol>
<symbol id="clients-big-line" viewBox="0 0 54 32">
<path stroke="#f0f8f6" style="stroke: var(--color1, #f0f8f6)" stroke-linejoin="round" stroke-linecap="round" stroke-miterlimit="4" stroke-width="19.3741" d="M9.796 22.204l14.727-12.408 14.727 12.408 14.727-12.408 14.727 12.408 14.727-12.408 14.727 12.408 14.727-12.408 14.727 12.408 14.727-12.408 14.727 12.408 14.727-12.408 14.727 12.408 14.727-12.408 14.727 12.408 14.727-12.408 14.727 12.408 14.727-12.408 14.727 12.408 14.727-12.408 14.727 12.408"></path>
</symbol>
</defs>
</svg>
